HIERARCHY
ROOT Hips
{
	OFFSET 0.000000 0.000000 0.000000 
	CHANNELS 6 Xposition Yposition Zposition Zrotation Xrotation Yrotation
	JOINT Spine
	{
		OFFSET -0.000000 8.061080 0.000000 
		CHANNELS 3 Zrotation Xrotation Yrotation
		JOINT Spine1
		{
			OFFSET -0.000000 20.532700 0.000000 
			CHANNELS 3 Zrotation Xrotation Yrotation
			JOINT Neck
			{
				OFFSET -0.000000 22.498800 0.000000 
				CHANNELS 3 Zrotation Xrotation Yrotation
				JOINT Head
				{
					OFFSET -0.000000 15.237400 1.966120 
					CHANNELS 3 Zrotation Xrotation Yrotation
					End Site
					{
						OFFSET -0.000000 19.661222 0.000000 
					}
				}
			}
			JOINT LeftShoulder
			{
				OFFSET 3.894670 16.042299 -0.398189 
				CHANNELS 3 Zrotation Xrotation Yrotation
				JOINT LeftArm
				{
					OFFSET 19.709600 0.000000 0.000000 
					CHANNELS 3 Zrotation Xrotation Yrotation
					JOINT LeftForeArm
					{
						OFFSET 25.566900 0.000000 0.000000 
						CHANNELS 3 Zrotation Xrotation Yrotation
						JOINT LeftHand
						{
							OFFSET 25.401899 0.000000 0.000000 
							CHANNELS 3 Zrotation Xrotation Yrotation
							End Site
							{
								OFFSET 14.745918 0.000000 0.000000 
							}
						}
					}
				}
			}
			JOINT RightShoulder
			{
				OFFSET -3.930780 16.042299 -0.398189 
				CHANNELS 3 Zrotation Xrotation Yrotation
				JOINT RightArm
				{
					OFFSET -19.709600 0.000000 0.000000 
					CHANNELS 3 Zrotation Xrotation Yrotation
					JOINT RightForeArm
					{
						OFFSET -25.566900 0.000000 0.000000 
						CHANNELS 3 Zrotation Xrotation Yrotation
						JOINT RightHand
						{
							OFFSET -25.401899 0.000000 0.000000 
							CHANNELS 3 Zrotation Xrotation Yrotation
							End Site
							{
								OFFSET -14.745918 0.000000 0.000000 
							}
						}
					}
				}
			}
		}
	}
	JOINT LeftUpLeg
	{
		OFFSET 9.830590 0.000000 0.000000 
		CHANNELS 3 Zrotation Xrotation Yrotation
		JOINT LeftLeg
		{
			OFFSET -0.000000 -46.474800 0.000000 
			CHANNELS 3 Zrotation Xrotation Yrotation
			JOINT LeftFoot
			{
				OFFSET -0.000000 -30.290499 0.000000 
				CHANNELS 3 Zrotation Xrotation Yrotation
				JOINT LeftToeBase
				{
					OFFSET -0.000000 -6.389880 14.745900 
					CHANNELS 3 Zrotation Xrotation Yrotation
					End Site
					{
						OFFSET -0.000000 0.000000 3.932244 
					}
				}
			}
		}
	}
	JOINT RightUpLeg
	{
		OFFSET -9.830590 0.000000 0.000000 
		CHANNELS 3 Zrotation Xrotation Yrotation
		JOINT RightLeg
		{
			OFFSET -0.000000 -46.474800 0.000000 
			CHANNELS 3 Zrotation Xrotation Yrotation
			JOINT RightFoot
			{
				OFFSET -0.000000 -30.290499 0.000000 
				CHANNELS 3 Zrotation Xrotation Yrotation
				JOINT RightToeBase
				{
					OFFSET -0.000000 -6.389880 14.745900 
					CHANNELS 3 Zrotation Xrotation Yrotation
					End Site
					{
						OFFSET -0.000000 0.000000 3.932244 
					}
				}
			}
		}
	}
}
MOTION
Frames: 12
Frame Time: 0.010000
0.000000 84.230453 0.000000 -1.856531 11.013215 3.960907 -0.142111 -13.330965 -1.553981 3.178592 2.172558 -0.574261 0.943445 4.862121 0.957300 2.418817 9.102448 0.655523 5.678086 9.794891 -4.967877 -69.589188 31.525352 -26.071350 -9.295984 -5.926842 -4.175820 2.160190 -6.188894 4.038237 -9.223911 8.627284 -7.303974 44.937908 56.996109 49.520004 3.971111 -13.178072 6.475908 8.415031 -12.772870 8.690608 6.120341 -5.023118 -2.449072 3.342736 1.225021 1.360905 0.323366 -3.864151 -7.604660 0.000000 0.000000 0.000000 -6.763792 -8.272174 -3.105773 8.424599 1.806856 -25.844566 0.000000 0.000000 0.000000 0.000000 0.000000 0.000000 
0.000816 84.230614 -0.005943 -1.855952 11.010240 3.958676 -0.143988 -13.325250 -1.554871 3.179687 2.174802 -0.574542 0.903278 4.808611 0.947675 2.489646 9.188088 0.621682 5.684597 9.790681 -4.953975 -69.578140 31.564413 -26.106432 -9.285542 -5.943449 -4.139795 2.154201 -6.202729 4.020616 -9.212791 8.622214 -7.319768 44.891205 57.009800 49.559475 3.970024 -13.183861 6.472408 8.417793 -12.778440 8.688472 6.119473 -5.022956 -2.448815 3.343515 1.224111 1.361273 0.323366 -3.864151 -7.604660 0.000000 0.000000 0.000000 -6.765025 -8.275789 -3.115396 8.423883 1.813980 -25.832397 0.000000 0.000000 0.000000 0.000000 0.000000 0.000000 
0.001640 84.230782 -0.011856 -1.855358 11.007257 3.956439 -0.143424 -13.329977 -1.556082 3.183859 2.168632 -0.574906 0.958427 4.865271 0.965083 2.407084 9.098924 0.668726 5.681977 9.806746 -4.966012 -69.559258 31.584206 -26.134415 -9.278639 -5.963216 -4.107745 2.146761 -6.220249 4.003113 -9.218459 8.644473 -7.307057 44.895760 56.994785 49.564068 3.967433 -13.183016 6.464164 8.418359 -12.777397 8.684596 6.118652 -5.022715 -2.448651 3.344149 1.223049 1.361588 0.323366 -3.864151 -7.604660 0.000000 0.000000 0.000000 -6.766317 -8.278979 -3.121180 8.423449 1.819672 -25.823450 0.000000 0.000000 0.000000 0.000000 0.000000 0.000000 
0.002481 84.230942 -0.017750 -1.854782 11.004249 3.954199 -0.145450 -13.330984 -1.557335 3.184897 2.164812 -0.575156 0.923039 4.831363 0.967392 2.472790 9.161217 0.649743 5.689785 9.816630 -4.970411 -69.550713 31.606966 -26.163668 -9.269225 -5.979788 -4.073865 2.140794 -6.234264 3.986339 -9.210840 8.657137 -7.303312 44.871727 56.991718 49.583660 3.966014 -13.187234 6.459958 8.420399 -12.781451 8.681947 6.117851 -5.022434 -2.448466 3.344774 1.221992 1.361899 0.323366 -3.864151 -7.604660 0.000000 0.000000 0.000000 -6.767523 -8.282047 -3.125844 8.422883 1.824996 -25.815611 0.000000 0.000000 0.000000 0.000000 0.000000 0.000000 
0.003349 84.231110 -0.023609 -1.854182 11.001300 3.951933 -0.147928 -13.329821 -1.558490 3.186391 2.164149 -0.575475 0.954489 4.845845 0.946584 2.441022 9.173180 0.640269 5.697278 9.820533 -4.967838 -69.542381 31.634550 -26.193804 -9.259624 -5.995412 -4.040596 2.135086 -6.247340 3.970095 -9.201608 8.662294 -7.307201 44.838543 56.995312 49.610630 3.964846 -13.192169 6.456336 8.422721 -12.786207 8.679448 6.116953 -5.022215 -2.448169 3.345467 1.221051 1.362232 0.323366 -3.864151 -7.604660 0.000000 0.000000 0.000000 -6.768653 -8.209743 -2.358609 8.456508 1.550260 -26.471786 0.000000 0.000000 0.000000 0.000000 0.000000 0.000000 
0.004236 84.231255 -0.029427 -1.853602 10.998321 3.949663 -0.147594 -13.330255 -1.559560 3.189859 2.161358 -0.575802 0.937956 4.819088 0.965383 2.458619 9.190084 0.652500 5.695569 9.827980 -4.968820 -69.525124 31.660110 -26.221792 -9.253076 -6.012444 -4.011387 2.128634 -6.262301 3.954578 -9.203578 8.673182 -7.306237 44.828876 56.990875 49.625927 3.963037 -13.192410 6.449463 8.423443 -12.786323 8.675830 6.116117 -5.021903 -2.447861 3.346030 1.219979 1.362518 0.323366 -3.864151 -7.604660 0.000000 0.000000 0.000000 -6.770076 -8.287842 -3.131972 8.422069 1.834428 -25.802393 0.000000 0.000000 0.000000 0.000000 0.000000 0.000000 
0.005157 84.231415 -0.035175 -1.853040 10.995329 3.947383 -0.149939 -13.327874 -1.560700 3.191750 2.161411 -0.576166 0.953534 4.840901 0.959422 2.452074 9.163125 0.651169 5.701797 9.829553 -4.963240 -69.516716 31.687674 -26.250080 -9.244553 -6.026397 -3.981428 2.123524 -6.273968 3.940025 -9.195075 8.675273 -7.313038 44.795689 56.996677 49.653439 3.962032 -13.196836 6.445988 8.425470 -12.790624 8.673144 6.115272 -5.021521 -2.447441 3.346591 1.218952 1.362801 0.323366 -3.864151 -7.604660 0.000000 0.000000 0.000000 -6.771333 -8.290450 -3.132903 8.421738 1.838400 -25.797667 0.000000 0.000000 0.000000 0.000000 0.000000 0.000000 
0.006126 84.231552 -0.040859 -1.852465 10.992355 3.945068 -0.150841 -13.328391 -1.561906 3.194783 2.159329 -0.576495 0.981106 4.826969 0.939956 2.417648 9.209918 0.642035 5.703241 9.836260 -4.964350 -69.504486 31.709145 -26.274826 -9.238263 -6.040601 -3.955269 2.118225 -6.286286 3.926647 -9.193732 8.684628 -7.312230 44.781551 56.993664 49.669048 3.960886 -13.198161 6.440689 8.426250 -12.791912 8.669648 6.114370 -5.021136 -2.446937 3.347154 1.217942 1.363084 0.323366 -3.864151 -7.604660 0.000000 0.000000 0.000000 -6.772445 -8.216545 -2.350925 8.456061 1.558254 -26.466663 0.000000 0.000000 0.000000 0.000000 0.000000 0.000000 
0.007139 84.231697 -0.046474 -1.851899 10.989476 3.942725 -0.149767 -13.327898 -1.562853 3.199722 2.158104 -0.576965 0.988718 4.840052 0.956654 2.397380 9.161859 0.665905 5.696801 9.840126 -4.961650 -69.485092 31.734310 -26.298828 -9.233798 -6.055393 -3.932570 2.112330 -6.299515 3.914152 -9.199944 8.691545 -7.314824 44.778072 56.990650 49.682129 3.959246 -13.196336 6.433178 8.426011 -12.790066 8.665338 6.113454 -5.020782 -2.446284 3.347664 1.216958 1.363344 0.323366 -3.864151 -7.604660 0.000000 0.000000 0.000000 -6.773961 -8.295652 -3.135228 8.421155 1.846260 -25.787857 0.000000 0.000000 0.000000 0.000000 0.000000 0.000000 
0.008207 84.231827 -0.051998 -1.851344 10.986510 3.940372 -0.152309 -13.328819 -1.564249 3.201221 2.154959 -0.577282 0.976082 4.821547 0.950187 2.426666 9.193376 0.650119 5.704164 9.848499 -4.965295 -69.480865 31.748272 -26.319021 -9.227591 -6.065763 -3.910042 2.108554 -6.308171 3.903587 -9.192958 8.701715 -7.311670 44.758606 56.988029 49.696632 3.958673 -13.199489 6.430081 8.427165 -12.793239 8.662102 6.112501 -5.020280 -2.445552 3.348179 1.215947 1.363606 0.323366 -3.864151 -7.604660 0.000000 0.000000 0.000000 -6.775255 -8.297434 -3.129190 8.421111 1.847597 -25.789175 0.000000 0.000000 0.000000 0.000000 0.000000 0.000000 
0.009331 84.231941 -0.057430 -1.850804 10.983569 3.937985 -0.154919 -13.327623 -1.565695 3.203859 2.154397 -0.577605 0.996913 4.834093 0.935477 2.419550 9.200607 0.640068 5.709154 9.851541 -4.962412 -69.475372 31.766056 -26.339109 -9.221921 -6.074939 -3.889697 2.104966 -6.315823 3.894151 -9.186717 8.705198 -7.315216 44.735157 56.990479 49.715496 3.958544 -13.202252 6.427191 8.428018 -12.796094 8.658685 6.111571 -5.019702 -2.444754 3.348552 1.214881 1.363813 0.323366 -3.864151 -7.604660 0.000000 0.000000 0.000000 -6.776435 -8.223248 -2.346066 8.455646 1.566958 -26.459204 0.000000 0.000000 0.000000 0.000000 0.000000 0.000000 
0.010517 84.232056 -0.062771 -1.850257 10.980673 3.935553 -0.155269 -13.328466 -1.566957 3.207931 2.151842 -0.578036 0.971931 4.823856 0.944323 2.448987 9.195343 0.638665 5.706952 9.858131 -4.964207 -69.463684 31.780111 -26.355616 -9.218958 -6.084805 -3.873925 2.101053 -6.324604 3.885942 -9.189694 8.714488 -7.313224 44.733063 56.985241 49.722664 3.957731 -13.201102 6.421731 8.427501 -12.795074 8.654180 6.110583 -5.019104 -2.443825 3.348946 1.213847 1.364027 0.323366 -3.864151 -7.604660 0.000000 0.000000 0.000000 -6.777903 -8.301283 -3.121358 8.420843 1.851607 -25.788307 0.000000 0.000000 0.000000 0.000000 0.000000 0.000000 
